<svg width="469" height="95" viewBox="0 0 469 95" fill="none" xmlns="http://www.w3.org/2000/svg">
<path d="M82.5339 68.0321V26.7321H99.9979C103.499 26.7321 106.331 27.8138 108.494 29.9771C110.657 32.1011 111.739 34.7168 111.739 37.8241C111.739 41.4821 110.323 44.2945 107.491 46.2611C111.346 48.3458 113.273 51.6301 113.273 56.1141C113.273 59.5755 112.093 62.4271 109.733 64.6691C107.373 66.9111 104.325 68.0321 100.588 68.0321H82.5339ZM88.6109 62.6041H100.234C102.004 62.6041 103.558 61.9945 104.895 60.7751C106.272 59.5558 106.96 57.9431 106.96 55.9371C106.96 53.9705 106.311 52.3971 105.013 51.2171C103.715 49.9978 102.122 49.3881 100.234 49.3881H88.6109V62.6041ZM88.6109 43.9601H98.8179C100.863 43.9601 102.476 43.4095 103.656 42.3081C104.875 41.1675 105.485 39.7515 105.485 38.0601C105.485 36.3295 104.895 34.9135 103.715 33.8121C102.574 32.7108 101.099 32.1601 99.2899 32.1601H88.6109V43.9601ZM117.397 68.0321V26.7321H144.537V32.3371H123.474V43.9601H142.708V49.5061H123.474V62.4271H144.537V68.0321H117.397ZM159.957 68.0321V32.3961H146.741V26.7321H179.368V32.3961H166.152V68.0321H159.957ZM195.191 68.0321V32.3961H181.975V26.7321H214.602V32.3961H201.386V68.0321H195.191ZM217.386 68.0321V26.7321H244.526V32.3371H223.463V43.9601H242.697V49.5061H223.463V62.4271H244.526V68.0321H217.386ZM248.677 68.0321V26.7321H265.02C269.11 26.7321 272.414 27.9515 274.932 30.3901C277.449 32.7895 278.708 35.7591 278.708 39.2991C278.708 42.1705 277.921 44.6681 276.348 46.7921C274.774 48.9161 272.69 50.4305 270.094 51.3351L279.711 62.5451V68.0321H273.516V64.1381L263.309 52.1611H254.695V68.0321H248.677ZM254.695 46.6151H264.961C267.203 46.6151 269.012 45.9268 270.389 44.5501C271.765 43.1735 272.454 41.4428 272.454 39.3581C272.454 37.3521 271.746 35.6805 270.33 34.3431C268.953 32.9665 267.163 32.2781 264.961 32.2781H254.695V46.6151Z" fill="#E5C185"/>
<path d="M285.416 68.0321V26.1421H311.199V30.0361H287.599L289.428 28.1481V47.7361L287.599 45.4941H310.137V49.3291H287.599L289.428 47.3821V68.0321H285.416ZM316.718 68.0321V26.1421H342.501V30.0361H320.73V45.1401H341.793V48.9751H320.73V64.1381H342.973V68.0321H316.718ZM349.346 68.0321V26.1421H375.129V30.0361H353.358V45.1401H374.421V48.9751H353.358V64.1381H375.601V68.0321H349.346ZM381.973 68.0321V26.1421H394.599C400.971 26.1421 405.868 27.9711 409.29 31.6291C412.751 35.2478 414.482 40.4201 414.482 47.1461C414.482 53.8328 412.791 58.9855 409.408 62.6041C406.025 66.2228 401.207 68.0321 394.953 68.0321H381.973ZM385.985 64.1381H394.599C399.752 64.1381 403.646 62.7025 406.281 59.8311C408.956 56.9598 410.293 52.7315 410.293 47.1461C410.293 41.4821 408.956 37.2145 406.281 34.3431C403.646 31.4718 399.752 30.0361 394.599 30.0361H385.985V64.1381Z" fill="#008585"/>
<path d="M17.5068 46.7191C17.2988 45.2444 17.6851 42.4033 18.0841 40.8955C18.0908 40.8677 18.0975 40.8399 18.1042 40.8121C18.1925 40.4524 18.2747 40.1121 18.379 39.7155C18.642 38.7783 18.9544 37.4719 20.1692 35.0034C20.4912 34.2722 20.8445 33.5554 21.2292 32.8541C23.7934 28.1581 27.7397 24.2361 32.3957 21.6696C35.2513 20.0851 38.3651 18.9935 41.5688 18.4555C41.6743 18.4342 41.7818 18.4132 41.8903 18.3926C43.9896 17.9725 46.6611 17.8257 48.3205 17.9899C50.4312 18.1814 51.8303 18.5182 52.9612 18.8231C59.502 20.3398 65.4107 24.1729 69.4438 29.4384C70.2725 30.514 71.0218 31.6391 71.6969 32.8169C72.0577 33.4466 72.3905 34.0788 72.7049 34.7318C73.5335 36.4529 74.1952 38.2566 74.6731 40.1088C74.9856 41.1773 75.2297 42.2149 75.4083 43.1864C75.6598 44.5524 75.7824 45.7898 75.8085 46.8147C75.8891 49.2875 75.4268 52.0791 74.8523 54.0691C74.7609 54.3954 74.6688 54.7018 74.5801 54.9838C74.1501 56.5718 73.5849 58.1262 72.89 59.6234C72.8274 59.7155 72.7634 59.8074 72.6976 59.9005C71.8687 61.0534 71.0619 62.5716 69.4005 64.7062C68.6716 65.6308 67.773 66.6608 66.5945 67.7517C65.831 68.4532 65.3657 68.7214 64.9882 68.9433C64.877 69.0078 64.7713 69.0685 64.6684 69.1307C64.3143 69.3447 64.006 69.653 63.6263 70.0099C63.1395 70.4673 62.5268 71.0148 61.566 71.4763C61.4557 71.5292 61.3473 71.5807 61.241 71.631C58.3954 72.9409 57.1233 73.523 56.1443 74.0363C55.8454 74.1854 55.5689 74.3166 55.2803 74.4276C54.3456 74.7931 52.9278 75.0563 51.8536 75.1314C51.0011 75.2053 49.327 75.4872 48.031 75.6208C47.5423 75.6753 46.8771 75.686 46.0955 75.6601C45.2864 75.6336 44.3529 75.567 43.3531 75.4792C40.8249 75.2404 39.504 74.8808 38.4499 74.6093C38.1495 74.5282 37.8711 74.4478 37.5936 74.3639C36.7163 74.0999 35.6459 73.7088 34.5911 73.2397C33.3272 72.6827 32.09 72.0091 31.1678 71.4648C28.8656 69.9099 26.8029 68.0149 25.0603 65.8771C24.16 64.7763 23.5179 63.5608 23.237 62.5675C22.9593 61.5784 23.0435 60.9056 23.3987 60.7018C23.7572 60.4956 24.3576 60.762 25.1039 61.3529C25.8551 61.9519 26.7035 62.8177 27.5472 63.752C29.2401 65.6335 31.2088 67.2526 33.3588 68.5559C35.9776 70.1449 38.8628 71.2667 41.8484 71.892C43.9369 72.3301 46.0795 72.515 48.2127 72.4364C48.4323 72.4284 48.652 72.4176 48.8718 72.404C50.6567 72.1812 52.3883 71.7422 53.5832 71.3813C54.5709 71.0855 55.2975 70.8889 55.9201 70.7054C56.3499 70.5773 56.7224 70.4557 57.0887 70.2923C57.2854 70.2043 57.5499 70.08 57.8652 69.9221C58.3686 69.6703 58.9941 69.3354 59.681 68.9291C60.7581 68.2952 61.9535 67.4897 63.0483 66.6739C63.8468 66.0833 64.7566 65.3691 65.5798 64.6192C66.7604 63.5544 67.7443 62.4191 68.1441 61.7811C68.8533 60.6667 69.6587 59.3868 70.275 58.1942C70.867 57.06 71.2919 56.016 71.4319 55.3914C71.5976 54.6453 71.8184 54.0392 72.0963 53.1141C72.2858 52.4724 72.5025 51.6753 72.6739 50.5689C72.8674 49.2912 72.9689 48.3794 73.0373 47.5993C73.1255 46.5043 73.1526 45.6629 72.9406 44.4445C72.7026 43.0911 72.3693 41.7067 72.1199 40.6153C72.007 40.1149 71.8431 39.5568 71.6485 38.9784C71.393 38.2165 71.0843 37.4279 70.8084 36.7033C70.581 36.1056 70.4227 35.5982 70.2699 35.1452C70.2229 35.0054 70.1763 34.8712 70.1284 34.7421C69.9897 34.4837 69.8461 34.2267 69.6975 33.9712C69.5865 33.7805 69.4734 33.5917 69.3582 33.4051C69.3039 33.3409 69.246 33.2742 69.1854 33.2049C68.8828 32.8598 68.4987 32.4357 68.0625 31.9056C67.3655 31.0607 66.7978 30.2983 66.1507 29.5192C65.6469 28.9153 65.0944 28.3039 64.3848 27.686C63.9013 27.2649 63.3183 26.822 62.7246 26.4127C61.8414 25.8003 60.9315 25.2666 60.3163 24.8662C60.0859 24.7156 59.906 24.5545 59.7254 24.3964C59.7247 24.3956 59.7239 24.3948 59.7231 24.394C59.7109 24.3833 59.6985 24.3726 59.6862 24.3619C58.0984 23.523 56.4242 22.8547 54.7036 22.3681C54.5518 22.3345 54.3984 22.3017 54.2461 22.2706C53.5024 22.1173 52.7744 22.008 52.2914 21.9938C51.7689 21.9753 50.4885 21.7874 49.1328 21.7354C48.2455 21.6971 47.3284 21.7119 46.5842 21.7768C46.1491 21.8141 45.7365 21.7802 45.3067 21.7559C44.9064 21.7333 44.4939 21.7192 44.0495 21.7843C43.8267 21.817 43.5905 21.8695 43.3384 21.9298C43.1167 21.9828 42.8826 22.0421 42.6378 22.0986C42.4113 22.1511 41.8949 22.2159 41.2375 22.334C40.8326 22.4065 40.3685 22.5011 39.892 22.6199C38.6489 23.0188 37.4434 23.5105 36.279 24.0901C36.0534 24.2464 35.8683 24.4033 35.7365 24.5544C35.6416 24.663 35.5717 24.7718 35.5005 24.8837C35.4038 25.0359 35.3053 25.1936 35.1467 25.3654C35.0228 25.4995 34.8567 25.62 34.7255 25.6679C34.7195 25.6701 34.7136 25.6722 34.7077 25.6741C34.654 25.6915 34.6065 25.6972 34.5629 25.7027C34.5076 25.7096 34.4583 25.716 34.4106 25.7449C34.3762 25.7658 34.3481 25.8006 34.3138 25.8432C34.2588 25.9112 34.1879 25.9993 34.0514 26.0853C33.546 26.4036 32.9673 26.7756 32.4222 27.1608C31.8128 27.59 31.2399 28.0399 30.8113 28.4288C30.3295 28.8633 29.6144 29.4522 28.9377 30.0926C28.464 30.5389 28.01 31.0059 27.6457 31.4333C27.2894 31.8504 26.971 32.3277 26.6809 32.7978C26.3316 33.3625 26.0224 33.9172 25.7029 34.3572C25.6382 34.4462 25.5155 34.5317 25.3624 34.6419C25.254 34.72 25.1299 34.8112 25.0016 34.9237C24.6654 35.5364 24.353 36.1611 24.0646 36.7976C24.0623 36.8235 24.06 36.8502 24.0578 36.877C24.0578 36.8774 24.0578 36.8779 24.0578 36.8783C24.0085 37.4866 23.9641 38.2916 23.4691 39.2703C23.3435 39.5202 23.2194 39.6646 23.1077 39.7961C22.9983 39.9252 22.9009 40.0422 22.8332 40.2355C22.7565 40.4551 22.7253 40.7309 22.6976 41.0308C22.6583 41.4525 22.6269 41.9198 22.4748 42.3661C22.4644 42.3967 22.4532 42.4295 22.4418 42.4637C22.3331 42.7886 22.1815 43.2718 21.9779 43.7537C21.7449 45.2325 21.6362 46.7343 21.6578 48.2383C21.6932 50.7457 22.0947 53.2608 22.863 55.6726C23.2352 56.849 23.5494 57.9971 23.6864 58.9312C23.8187 59.8569 23.7498 60.4985 23.3987 60.7018C23.0513 60.9038 22.4381 60.6454 21.7296 59.9287C21.019 59.2067 20.2926 58.0725 19.7832 56.7752C18.9521 54.6672 18.3681 52.4508 18.058 50.1879C18.0369 50.0698 18.0167 49.951 17.9977 49.8326C17.8574 48.9529 17.7039 48.1306 17.5834 47.2962C17.5558 47.1046 17.53 46.9123 17.5068 46.7191Z" fill="#008585"/>
</svg>
