<svg width="317" height="129" viewBox="0 0 317 129" fill="none" xmlns="http://www.w3.org/2000/svg">
<path d="M112.248 61.7462V20.4462H129.712C133.213 20.4462 136.045 21.5278 138.208 23.6912C140.371 25.8152 141.453 28.4309 141.453 31.5382C141.453 35.1962 140.037 38.0085 137.205 39.9752C141.06 42.0599 142.987 45.3442 142.987 49.8282C142.987 53.2895 141.807 56.1412 139.447 58.3832C137.087 60.6252 134.039 61.7462 130.302 61.7462H112.248ZM118.325 56.3182H129.948C131.718 56.3182 133.272 55.7085 134.609 54.4892C135.986 53.2699 136.674 51.6572 136.674 49.6512C136.674 47.6845 136.025 46.1112 134.727 44.9312C133.429 43.7119 131.836 43.1022 129.948 43.1022H118.325V56.3182ZM118.325 37.6742H128.532C130.577 37.6742 132.19 37.1235 133.37 36.0222C134.589 34.8815 135.199 33.4655 135.199 31.7742C135.199 30.0435 134.609 28.6275 133.429 27.5262C132.288 26.4248 130.813 25.8742 129.004 25.8742H118.325V37.6742ZM147.111 61.7462V20.4462H174.251V26.0512H153.188V37.6742H172.422V43.2202H153.188V56.1412H174.251V61.7462H147.111ZM189.671 61.7462V26.1102H176.455V20.4462H209.082V26.1102H195.866V61.7462H189.671ZM224.905 61.7462V26.1102H211.689V20.4462H244.316V26.1102H231.1V61.7462H224.905ZM247.1 61.7462V20.4462H274.24V26.0512H253.177V37.6742H272.411V43.2202H253.177V56.1412H274.24V61.7462H247.1ZM278.391 61.7462V20.4462H294.734C298.824 20.4462 302.128 21.6655 304.646 24.1042C307.163 26.5035 308.422 29.4732 308.422 33.0132C308.422 35.8845 307.635 38.3822 306.062 40.5062C304.488 42.6302 302.404 44.1445 299.808 45.0492L309.425 56.2592V61.7462H303.23V57.8522L293.023 45.8752H284.409V61.7462H278.391ZM284.409 40.3292H294.675C296.917 40.3292 298.726 39.6409 300.103 38.2642C301.479 36.8875 302.168 35.1569 302.168 33.0722C302.168 31.0662 301.46 29.3945 300.044 28.0572C298.667 26.6805 296.877 25.9922 294.675 25.9922H284.409V40.3292Z" fill="#E5C185"/>
<path d="M112.201 108.714V66.824H137.984V70.718H114.384L116.213 68.83V88.418L114.384 86.176H136.922V90.011H114.384L116.213 88.064V108.714H112.201ZM143.503 108.714V66.824H169.286V70.718H147.515V85.822H168.578V89.657H147.515V104.82H169.758V108.714H143.503ZM176.131 108.714V66.824H201.914V70.718H180.143V85.822H201.206V89.657H180.143V104.82H202.386V108.714H176.131ZM208.758 108.714V66.824H221.384C227.756 66.824 232.653 68.653 236.075 72.311C239.537 75.9297 241.267 81.102 241.267 87.828C241.267 94.5147 239.576 99.6674 236.193 103.286C232.811 106.905 227.992 108.714 221.738 108.714H208.758ZM212.77 104.82H221.384C226.537 104.82 230.431 103.384 233.066 100.513C235.741 97.6417 237.078 93.4134 237.078 87.828C237.078 82.164 235.741 77.8964 233.066 75.025C230.431 72.1537 226.537 70.718 221.384 70.718H212.77V104.82Z" fill="#008585"/>
<path d="M24.8719 64.0359C24.659 62.0606 25.1493 58.2581 25.6696 56.2332C25.6783 56.1958 25.687 56.1585 25.6958 56.1212C25.8107 55.6384 25.9199 55.1821 26.0587 54.6504C26.4092 53.3932 26.8236 51.6443 28.4145 48.3159C28.848 47.3355 29.3227 46.3743 29.8389 45.4334C33.2794 39.1339 38.5517 33.8611 44.7928 30.3836C48.6206 28.2373 52.7967 26.7474 57.1027 25.9985C57.2448 25.9703 57.3894 25.9424 57.5355 25.915C60.3617 25.3566 63.9539 25.1677 66.1882 25.3643C69.0307 25.5909 70.9217 26.016 72.4524 26.4027C81.2869 28.3948 89.3085 33.5319 94.7824 40.6458C95.907 42.0988 96.9237 43.6201 97.839 45.2139C98.3282 46.0661 98.7792 46.9218 99.2048 47.8057C100.326 50.1356 101.22 52.5777 101.863 55.0852C102.271 56.5347 102.584 57.9413 102.809 59.2564C103.126 61.1058 103.271 62.7772 103.3 64.1606C103.393 67.4979 102.794 71.2667 102.036 73.9607C101.916 74.4023 101.794 74.817 101.677 75.1988C101.087 77.3421 100.314 79.4381 99.3665 81.4552C99.287 81.582 99.2059 81.7088 99.1225 81.8372C98.0699 83.4287 96.9753 85.4865 94.7263 88.3735C93.7394 89.6243 92.5231 91.0174 90.9321 92.4977C89.9014 93.4495 89.291 93.8354 88.7949 94.1554C88.6487 94.2485 88.5097 94.336 88.3735 94.4247C87.905 94.7297 87.4739 95.1322 86.9453 95.5963C86.267 96.1913 85.4185 96.9006 84.1349 97.5542C83.9874 97.6291 83.8425 97.7021 83.7002 97.7732C79.8869 99.6289 78.1257 100.358 76.7863 101.001C76.3767 101.188 75.9985 101.352 75.606 101.494C74.3351 101.963 72.4274 102.343 70.9794 102.48C69.8305 102.608 67.5585 102.962 65.8056 103.107C65.1445 103.167 64.2457 103.181 63.1893 103.146C62.0959 103.11 60.8337 103.02 59.4848 102.886C56.0745 102.526 54.2989 102.023 52.8813 101.643C52.4774 101.53 52.1032 101.418 51.7304 101.301C50.5517 100.933 49.113 100.396 47.6966 99.7552C45.9995 98.9936 44.34 98.0758 43.1083 97.3295C40.0013 95.2523 37.2098 92.7184 34.8448 89.8517C33.6231 88.376 32.7066 86.777 32.2355 85.4904C31.7691 84.2102 31.7581 83.3643 32.1127 83.161C32.4718 82.9543 33.1674 83.3938 34.1024 84.2758C35.0438 85.1682 36.1667 86.4174 37.3317 87.7266C39.6686 90.3624 42.3955 92.6394 45.3835 94.4746C49.0226 96.7122 53.0462 98.2958 57.2151 99.1689C60.1311 99.7806 63.1236 100.035 66.1014 99.9182C66.408 99.9062 66.7147 99.8904 67.0214 99.8706C69.5158 99.5998 71.9463 99.0221 73.6224 98.5294C75.008 98.1258 76.019 97.8298 76.8829 97.556C77.4795 97.365 77.9956 97.1848 78.5081 96.958C78.7835 96.836 79.1541 96.6645 79.596 96.4466C80.3014 96.0989 81.1784 95.6363 82.1402 95.0712C83.6479 94.1899 85.3199 93.0613 86.8348 91.9025C87.9397 91.0635 89.1873 90.0404 90.3114 88.9725C91.9239 87.4553 93.2569 85.8513 93.8238 84.9716C94.8298 83.4341 95.9348 81.6411 96.7759 79.9757C97.5841 78.3911 98.1605 76.9365 98.3805 76.0768C98.6412 75.0497 98.9362 74.2012 99.3039 72.9107C99.5543 72.0152 99.8393 70.9046 100.071 69.3671C100.332 67.5912 100.451 66.3236 100.527 65.2413C100.622 63.7215 100.64 62.5589 100.383 60.8659C100.094 58.9851 99.656 57.0547 99.2969 55.5418C99.1344 54.8483 98.9082 54.073 98.6392 53.2692C98.2863 52.2105 97.8594 51.114 97.4628 50.1139C97.1359 49.2889 96.8883 48.5982 96.6524 47.9832C96.5797 47.7934 96.508 47.6113 96.4354 47.436C96.2436 47.0781 96.0451 46.7221 95.8396 46.3682C95.6863 46.104 95.53 45.8426 95.3708 45.5839C95.2999 45.4925 95.2243 45.3972 95.1452 45.2983C94.7501 44.8053 94.2467 44.1977 93.6551 43.4514C92.7097 42.2617 91.9064 41.2122 90.9946 40.1432C90.2845 39.3143 89.5078 38.4771 88.527 37.6159C87.8586 37.029 87.0578 36.4047 86.241 35.8263C85.0262 34.9612 83.7711 34.2036 82.9103 33.6573C82.5878 33.4519 82.3281 33.2449 82.0681 33.0424C82.067 33.0414 82.0659 33.0405 82.0648 33.0395C82.0471 33.0258 82.0293 33.0121 82.0116 32.9984C79.8157 31.8214 77.4979 30.8782 75.1128 30.1857C74.9034 30.1343 74.6915 30.084 74.4813 30.036C73.4543 29.8001 72.4469 29.6254 71.781 29.5731C71.0607 29.5122 69.2786 29.2293 67.3876 29.1344C66.15 29.0665 64.8692 29.0721 63.8283 29.1426C63.2196 29.183 62.6431 29.1562 62.0441 29.1433C61.4861 29.1315 60.9125 29.1319 60.2917 29.2178C59.9805 29.261 59.6497 29.3258 59.2963 29.401C58.9855 29.4672 58.6571 29.5416 58.314 29.6155C57.9966 29.6841 57.2768 29.7858 56.3618 29.9646C55.7984 30.0743 55.1529 30.2161 54.4902 30.3895C52.7518 30.9341 51.0641 31.6091 49.433 32.4084C49.1102 32.6103 48.8413 32.8086 48.6433 32.9931C48.5007 33.1257 48.3909 33.255 48.2788 33.3882C48.1264 33.5696 47.9704 33.7578 47.7329 33.9729C47.5473 34.1409 47.3088 34.3023 47.1291 34.3782C47.1209 34.3817 47.1127 34.385 47.1048 34.3881C47.0315 34.4167 46.9686 34.4315 46.9109 34.4452C46.8377 34.4626 46.7724 34.4784 46.7052 34.5189C46.6567 34.5482 46.6141 34.5916 46.5618 34.6449C46.4784 34.7301 46.3703 34.8405 46.1779 34.9611C45.4655 35.4074 44.6536 35.9352 43.8893 36.4815C43.0349 37.0901 42.2322 37.7272 41.6258 38.2712C40.944 38.8788 39.953 39.7254 39.0187 40.6417C38.3646 41.2804 37.7391 41.947 37.2327 42.5512C36.7374 43.141 36.2802 43.8033 35.8622 44.4566C35.3591 45.2413 34.9116 46.014 34.4801 46.643C34.3927 46.7701 34.2421 46.9031 34.0548 47.0734C33.9221 47.194 33.7704 47.3343 33.6112 47.503C33.1406 48.3608 32.7042 49.2357 32.3022 50.1275C32.2959 50.1624 32.2894 50.1984 32.2831 50.2344C32.2831 50.235 32.2831 50.2356 32.283 50.2362C32.1416 51.0545 31.9749 52.1492 31.3413 53.5467C31.1807 53.903 31.0359 54.115 30.9057 54.3073C30.7783 54.4962 30.665 54.6667 30.5752 54.9386C30.4734 55.2475 30.4138 55.6292 30.3574 56.045C30.2778 56.6294 30.2058 57.2797 30.0185 57.9106C30.0057 57.9537 29.9919 58.0001 29.9779 58.0485C29.844 58.5073 29.6589 59.1893 29.4292 59.8703C29.1182 61.9393 28.9837 64.0384 29.0327 66.1372C29.1134 69.6362 29.7093 73.1365 30.8122 76.4818C31.3468 78.1139 31.8527 79.6825 32.1459 80.9217C32.4332 82.15 32.4645 82.9574 32.1127 83.161C31.766 83.3626 31.0525 82.9385 30.1892 81.9192C29.3223 80.8921 28.4042 79.3373 27.7324 77.5843C26.6359 74.7353 25.8744 71.7462 25.4801 68.7001C25.4545 68.541 25.4301 68.381 25.4072 68.2215C25.238 67.0366 25.0708 65.9293 24.948 64.8098C24.9199 64.5528 24.8942 64.2948 24.8719 64.0359Z" fill="#008585"/>
</svg>
