<svg width="538" height="100" viewBox="0 0 538 100" fill="none" xmlns="http://www.w3.org/2000/svg">
<path d="M288.5 72.5L303.38 30.5H311.6L326.42 72.5H319.88L315.98 61.28H298.82L294.92 72.5H288.5ZM300.86 55.46H313.94L307.4 36.56L300.86 55.46Z" fill="#E5C185"/>
<path d="M342.612 73.04C338.172 73.04 334.413 71.56 331.333 68.6C328.253 65.6 326.713 61.74 326.713 57.02C326.713 52.3 328.232 48.46 331.272 45.5C334.352 42.54 338.132 41.06 342.612 41.06C346.292 41.06 349.333 41.94 351.733 43.7C354.133 45.46 355.812 47.58 356.772 50.06L351.553 52.76C350.953 51.04 349.873 49.6 348.312 48.44C346.793 47.24 344.892 46.64 342.612 46.64C339.732 46.64 337.373 47.62 335.533 49.58C333.693 51.54 332.772 54.02 332.772 57.02C332.772 59.98 333.693 62.48 335.533 64.52C337.373 66.52 339.732 67.52 342.612 67.52C344.853 67.52 346.753 66.94 348.312 65.78C349.873 64.62 350.953 63.2 351.553 61.52L356.772 64.22C355.812 66.62 354.113 68.7 351.673 70.46C349.232 72.18 346.212 73.04 342.612 73.04Z" fill="#E5C185"/>
<path d="M371.114 73.1C367.994 73.1 365.434 72.2 363.434 70.4C361.434 68.6 360.434 66.3 360.434 63.5C360.434 60.74 361.374 58.48 363.254 56.72C365.134 54.96 367.774 53.96 371.174 53.72L380.294 53.12V52.76C380.294 51.16 379.594 49.72 378.194 48.44C376.834 47.12 374.994 46.46 372.674 46.46C370.554 46.46 368.854 47 367.574 48.08C366.294 49.16 365.414 50.4 364.934 51.8L360.194 49.4C360.994 47.12 362.434 45.16 364.514 43.52C366.634 41.88 369.374 41.06 372.734 41.06C376.894 41.06 380.174 42.26 382.574 44.66C385.014 47.06 386.234 49.84 386.234 53V72.5H380.294V68.96C379.494 70.2 378.254 71.2 376.574 71.96C374.894 72.72 373.074 73.1 371.114 73.1ZM366.434 63.38C366.434 64.74 366.934 65.82 367.934 66.62C368.934 67.42 370.194 67.82 371.714 67.82C374.354 67.82 376.454 67.06 378.014 65.54C379.614 64.02 380.414 62.2 380.414 60.08V58.16L371.594 58.76C370.034 58.84 368.774 59.28 367.814 60.08C366.894 60.88 366.434 61.98 366.434 63.38Z" fill="#E5C185"/>
<path d="M404.636 73.04C400.276 73.04 396.656 71.6 393.776 68.72C390.936 65.8 389.516 61.9 389.516 57.02C389.516 52.42 390.956 48.62 393.836 45.62C396.716 42.58 400.316 41.06 404.636 41.06C406.756 41.06 408.756 41.5 410.636 42.38C412.556 43.26 413.976 44.36 414.896 45.68V28.1H420.896V72.5H414.896V68.6C413.936 69.88 412.496 70.94 410.576 71.78C408.656 72.62 406.676 73.04 404.636 73.04ZM395.576 57.02C395.576 59.98 396.456 62.48 398.216 64.52C400.016 66.52 402.376 67.52 405.296 67.52C408.216 67.52 410.556 66.52 412.316 64.52C414.116 62.48 415.016 59.98 415.016 57.02C415.016 54.1 414.116 51.64 412.316 49.64C410.556 47.64 408.216 46.64 405.296 46.64C402.376 46.64 400.016 47.64 398.216 49.64C396.456 51.64 395.576 54.1 395.576 57.02Z" fill="#E5C185"/>
<path d="M439.837 73.04C435.157 73.04 431.377 71.52 428.497 68.48C425.617 65.44 424.177 61.64 424.177 57.08C424.177 52.48 425.617 48.66 428.497 45.62C431.377 42.58 435.137 41.06 439.777 41.06C444.177 41.06 447.737 42.56 450.457 45.56C453.177 48.52 454.537 52.12 454.537 56.36V59.18H430.237C430.597 61.98 431.637 64.1 433.357 65.54C435.117 66.94 437.277 67.64 439.837 67.64C442.117 67.64 444.057 67.08 445.657 65.96C447.297 64.8 448.377 63.46 448.897 61.94L453.517 64.4C452.677 66.56 451.097 68.54 448.777 70.34C446.457 72.14 443.477 73.04 439.837 73.04ZM430.417 54.14H448.297C448.257 52.1 447.437 50.3 445.837 48.74C444.277 47.14 442.237 46.34 439.717 46.34C437.357 46.34 435.337 47.02 433.657 48.38C431.977 49.74 430.897 51.66 430.417 54.14Z" fill="#E5C185"/>
<path d="M457.834 72.5V41.6H463.834V45.5C464.554 44.14 465.674 43.06 467.194 42.26C468.714 41.46 470.394 41.06 472.234 41.06C476.314 41.06 479.494 42.66 481.774 45.86C484.214 42.66 487.514 41.06 491.674 41.06C495.194 41.06 498.094 42.18 500.374 44.42C502.694 46.66 503.854 49.42 503.854 52.7V72.5H497.854V54.14C497.854 51.86 497.194 50.06 495.874 48.74C494.594 47.38 492.934 46.7 490.894 46.7C488.814 46.7 487.114 47.4 485.794 48.8C484.474 50.16 483.814 51.94 483.814 54.14V72.5H477.814V54.14C477.814 51.86 477.174 50.06 475.894 48.74C474.614 47.38 472.934 46.7 470.854 46.7C468.774 46.7 467.074 47.4 465.754 48.8C464.474 50.16 463.834 51.94 463.834 54.14V72.5H457.834Z" fill="#E5C185"/>
<path d="M511.48 86.24L517.48 72.26L504.4 41.6H511.12L520.84 65.3L530.14 41.6H537.04L518.2 86.24H511.48Z" fill="#E5C185"/>
<path d="M205.328 71.5001V30.2001H231.819V35.7461H211.405V48.4901H229.813V54.0361H211.405V71.5001H205.328Z" fill="#008585"/>
<path d="M236.517 71.5001V30.2001H242.653V71.5001H236.517Z" fill="#008585"/>
<path d="M259.819 71.5001V35.8641H246.603V30.2001H279.23V35.8641H266.014V71.5001H259.819Z" fill="#008585"/>
<path d="M16.5 71.1751C12 71.1751 8.35 70.1251 5.55 68.0251C2.75 65.9251 0.9 63.5001 0 60.7501L6.3 57.6001C6.8 59.3501 7.95 60.9501 9.75 62.4001C11.6 63.8001 13.9 64.5001 16.65 64.5001C19.15 64.5001 21.1 64.0501 22.5 63.1501C23.95 62.2501 24.675 61.0751 24.675 59.6251C24.675 57.2251 23.05 55.7001 19.8 55.0501L12.3 53.6251C9.15 52.9751 6.65 51.7501 4.8 49.9501C3 48.1501 2.1 45.7251 2.1 42.6751C2.1 39.3251 3.475 36.5751 6.225 34.4251C8.975 32.2751 12.5 31.2001 16.8 31.2001C21.15 31.2001 24.55 32.1501 27 34.0501C29.45 35.9501 31.1 38.1751 31.95 40.7251L25.725 43.7251C25.375 42.1251 24.4 40.7251 22.8 39.5251C21.25 38.3251 19.225 37.7251 16.725 37.7251C14.475 37.7251 12.675 38.1751 11.325 39.0751C10.025 39.9751 9.375 41.1251 9.375 42.5251C9.375 44.8251 10.9 46.2751 13.95 46.8751L21.825 48.4501C25.225 49.1001 27.825 50.4001 29.625 52.3501C31.425 54.3001 32.325 56.6501 32.325 59.4001C32.325 62.9001 30.875 65.7501 27.975 67.9501C25.075 70.1001 21.25 71.1751 16.5 71.1751Z" fill="#E5C185"/>
<path d="M35.9004 70.5001V31.8751H43.4004V36.7501C44.3004 35.0501 45.7004 33.7001 47.6004 32.7001C49.5004 31.7001 51.6004 31.2001 53.9004 31.2001C59.0004 31.2001 62.9754 33.2001 65.8254 37.2001C68.8754 33.2001 73.0004 31.2001 78.2004 31.2001C82.6004 31.2001 86.2254 32.6001 89.0754 35.4001C91.9754 38.2001 93.4254 41.6501 93.4254 45.7501V70.5001H85.9254V47.5501C85.9254 44.7001 85.1004 42.4501 83.4504 40.8001C81.8504 39.1001 79.7754 38.2501 77.2254 38.2501C74.6254 38.2501 72.5004 39.1251 70.8504 40.8751C69.2004 42.5751 68.3754 44.8001 68.3754 47.5501V70.5001H60.8754V47.5501C60.8754 44.7001 60.0754 42.4501 58.4754 40.8001C56.8754 39.1001 54.7754 38.2501 52.1754 38.2501C49.5754 38.2501 47.4504 39.1251 45.8004 40.8751C44.2004 42.5751 43.4004 44.8001 43.4004 47.5501V70.5001H35.9004Z" fill="#E5C185"/>
<path d="M110.132 71.2501C106.232 71.2501 103.032 70.1251 100.532 67.8751C98.0322 65.6251 96.7822 62.7501 96.7822 59.2501C96.7822 55.8001 97.9572 52.9751 100.307 50.7751C102.657 48.5751 105.957 47.3251 110.207 47.0251L121.607 46.2751V45.8251C121.607 43.8251 120.732 42.0251 118.982 40.4251C117.282 38.7751 114.982 37.9501 112.082 37.9501C109.432 37.9501 107.307 38.6251 105.707 39.9751C104.107 41.3251 103.007 42.8751 102.407 44.6251L96.4822 41.6251C97.4822 38.7751 99.2822 36.3251 101.882 34.2751C104.532 32.2251 107.957 31.2001 112.157 31.2001C117.357 31.2001 121.457 32.7001 124.457 35.7001C127.507 38.7001 129.032 42.1751 129.032 46.1251V70.5001H121.607V66.0751C120.607 67.6251 119.057 68.8751 116.957 69.8251C114.857 70.7751 112.582 71.2501 110.132 71.2501ZM104.282 59.1001C104.282 60.8001 104.907 62.1501 106.157 63.1501C107.407 64.1501 108.982 64.6501 110.882 64.6501C114.182 64.6501 116.807 63.7001 118.757 61.8001C120.757 59.9001 121.757 57.6251 121.757 54.9751V52.5751L110.732 53.3251C108.782 53.4251 107.207 53.9751 106.007 54.9751C104.857 55.9751 104.282 57.3501 104.282 59.1001Z" fill="#E5C185"/>
<path d="M133.509 70.5001V31.8751H141.009V38.7751L155.634 31.0501V39.1501L141.009 46.4251V70.5001H133.509Z" fill="#E5C185"/>
<path d="M167.225 70.5001V38.4751H160.325V31.8751H167.45V21.9001H174.725V31.8751H184.7V38.4751H174.725V63.4501H184.85V70.5001H167.225Z" fill="#E5C185"/>
<path d="M192.197 62.4929C191.362 60.184 190.711 55.4888 190.661 52.9005C190.659 52.8531 190.657 52.8056 190.655 52.7582C190.632 52.1444 190.613 51.5636 190.604 50.8831C190.609 49.2661 190.53 47.0465 191.283 42.5385C191.472 41.2243 191.715 39.917 192.011 38.6215C194.024 29.7397 198.586 21.442 205.012 15.0107C208.704 11.2964 212.988 8.18991 217.669 5.87155C217.829 5.78829 217.993 5.70459 218.158 5.62107C221.341 3.97156 225.575 2.51322 228.315 1.97161C231.793 1.25332 234.204 1.10957 236.171 1.04558C247.452 0.446747 258.813 4.10338 267.625 11.0132C269.434 12.4218 271.132 13.9474 272.729 15.5936C273.583 16.473 274.392 17.37 275.177 18.3073C277.249 20.7795 279.08 23.4562 280.632 26.2856C281.566 27.9141 282.37 29.5182 283.044 31.0376C283.991 33.1731 284.68 35.144 285.149 36.7998C286.31 40.788 286.827 45.5017 286.818 48.9858C286.821 49.5556 286.814 50.0935 286.801 50.5906C286.795 53.358 286.563 56.1282 286.104 58.8623C286.055 59.0418 286.005 59.2223 285.953 59.4051C285.283 61.6776 284.672 64.5193 282.981 68.7559C282.234 70.5946 281.265 72.6866 279.885 75.0193C278.991 76.5171 278.411 77.2118 277.946 77.7766C277.809 77.9426 277.678 78.0974 277.549 78.2556C277.102 78.7993 276.72 79.4204 276.239 80.1524C275.617 81.0963 274.833 82.2276 273.55 83.4764C273.242 83.7762 272.943 84.0612 272.654 84.333C269.09 87.6273 267.314 89.0314 265.966 90.1936C265.536 90.5519 265.138 90.8708 264.714 91.176C263.349 92.1698 261.211 93.3094 259.532 94.003C258.21 94.5759 255.599 95.774 253.538 96.528C252.765 96.8188 251.689 97.1453 250.411 97.4633C249.085 97.7939 247.539 98.1144 245.872 98.3987C241.65 99.0894 239.348 99.0555 237.519 99.0552C236.996 99.0487 236.509 99.0341 236.023 99.0129C234.486 98.9478 232.58 98.7626 230.671 98.4397C228.384 98.0612 226.096 97.4755 224.38 96.9549C219.978 95.4478 215.817 93.2724 212.073 90.5549C210.139 89.1569 208.516 87.5451 207.499 86.1883C206.491 84.8393 206.144 83.8847 206.437 83.6009C206.735 83.3117 207.645 83.704 209.009 84.5515C210.385 85.4102 212.121 86.6316 213.957 87.8808C217.639 90.3973 221.698 92.346 225.946 93.6448C231.119 95.2306 236.57 95.8535 241.955 95.5057C245.723 95.2642 249.46 94.5381 253.045 93.3476C253.413 93.2251 253.783 93.097 254.147 92.9653C257.098 91.7845 259.863 90.2376 261.736 89.0426C263.283 88.0612 264.398 87.326 265.347 86.6698C265.992 86.2209 266.557 85.805 267.101 85.3448C267.389 85.1 267.779 84.7596 268.242 84.335C268.877 83.7522 269.625 83.0313 270.443 82.1792C272.07 80.4936 273.872 78.3366 275.415 76.1909C276.446 74.7703 277.585 73.0548 278.551 71.3488C279.945 68.9113 280.976 66.477 281.366 65.2112C282.066 62.9894 282.777 60.4135 283.218 58.0903C283.646 55.8773 283.846 53.9056 283.841 52.7824C283.834 51.4403 283.899 50.3025 283.903 48.6022C283.901 47.4238 283.868 45.9724 283.639 44.0158C283.368 41.7584 283.085 40.171 282.815 38.8261C282.421 36.939 282.056 35.5179 281.223 33.519C280.294 31.2994 279.162 29.0621 278.237 27.3239C277.816 26.5269 277.295 25.6463 276.714 24.7446C275.95 23.5559 275.085 22.3435 274.279 21.247C273.614 20.3425 273.079 19.5859 272.585 18.9188C272.432 18.7126 272.283 18.5156 272.136 18.3268C271.79 17.948 271.437 17.5738 271.076 17.2045C270.806 16.9284 270.533 16.6566 270.258 16.3892C270.145 16.2969 270.026 16.201 269.901 16.1017C269.278 15.6074 268.487 15.0007 267.537 14.2617C266.019 13.0828 264.699 12.0563 263.24 11.0429C262.105 10.2582 260.886 9.48602 259.415 8.73827C258.414 8.22897 257.239 7.7105 256.06 7.25532C254.302 6.57145 252.528 6.03596 251.297 5.65343C250.835 5.50914 250.448 5.35297 250.061 5.20258C250.06 5.20184 250.058 5.20109 250.056 5.20035C250.03 5.19015 250.004 5.18003 249.977 5.1699C246.917 4.43343 243.779 4.03217 240.64 3.97172C240.368 3.97549 240.093 3.98157 239.82 3.99006C238.49 4.02969 237.201 4.14074 236.371 4.28015C235.47 4.42527 233.199 4.67153 230.857 5.19383C229.323 5.52794 227.762 5.97021 226.512 6.40735C225.785 6.66112 225.073 6.84489 224.345 7.05284C223.668 7.24638 222.972 7.46291 222.247 7.783C221.884 7.9431 221.501 8.13451 221.094 8.34584C220.736 8.53203 220.361 8.73355 219.969 8.94178C219.606 9.135 218.765 9.52355 217.724 10.0743C217.078 10.4157 216.352 10.8215 215.608 11.2761C213.687 12.5511 211.865 13.9786 210.167 15.5299C209.838 15.8832 209.568 16.213 209.383 16.4908C209.249 16.6912 209.149 16.8763 209.048 17.0667C208.91 17.3259 208.769 17.5944 208.541 17.9296C208.474 18.0297 208.397 18.1324 208.317 18.2302C208.189 18.3883 208.054 18.5333 207.938 18.6332C207.851 18.7084 207.776 18.7579 207.707 18.803C207.629 18.8546 207.559 18.901 207.491 18.9744C207.443 19.0274 207.403 19.0928 207.355 19.1731C207.278 19.3015 207.179 19.4679 206.987 19.6842C206.271 20.4935 205.482 21.4228 204.742 22.3757C203.924 23.4271 203.172 24.5022 202.624 25.383C202.005 26.3724 201.111 27.7725 200.31 29.2352C199.747 30.2564 199.229 31.3014 198.829 32.221C198.437 33.1192 198.103 34.0912 197.814 35.0354C197.464 36.1729 197.178 37.2747 196.882 38.201C196.823 38.3882 196.701 38.6084 196.552 38.8874C196.446 39.0851 196.326 39.3141 196.205 39.5801C195.928 40.7933 195.697 42.0172 195.513 43.248C195.515 43.2926 195.517 43.3385 195.52 43.3846C195.52 43.3853 195.52 43.386 195.52 43.3868C195.575 44.43 195.672 45.8278 195.414 47.7652C195.349 48.2588 195.264 48.569 195.188 48.8498C195.114 49.1255 195.049 49.3733 195.034 49.7374C195.018 50.1509 195.062 50.6393 195.12 51.1694C195.202 51.9143 195.312 52.7395 195.311 53.5767C195.311 53.6339 195.31 53.6954 195.311 53.7595C195.312 54.3673 195.33 55.2656 195.311 56.173C195.624 58.8152 196.155 61.4348 196.906 63.9939C198.155 68.2608 200.018 72.361 202.441 76.1106C203.619 77.9406 204.771 79.679 205.575 81.0512C206.369 82.4135 206.728 83.3166 206.437 83.6009C206.151 83.8813 205.225 83.5174 203.924 82.4998C202.617 81.4746 201.07 79.852 199.73 77.9408C197.546 74.8345 195.722 71.4659 194.308 67.9242C194.229 67.7402 194.152 67.555 194.076 67.3699C193.514 65.9951 192.99 64.7097 192.515 63.4007C192.406 63.1 192.3 62.7975 192.197 62.4929Z" fill="#008585"/>
</svg>
