<svg width="297" height="99" viewBox="0 0 297 99" fill="none" xmlns="http://www.w3.org/2000/svg">
<circle cx="247.5" cy="49.5" r="47.5" stroke="#008585" stroke-width="4"/>
<path d="M17.79 70.924C14.248 70.924 11.2193 70.3593 8.70399 69.23C6.23999 68.0493 4.31499 66.4323 2.92899 64.379C1.54299 62.3256 0.747325 60.0156 0.541992 57.449L5.85499 57.064C6.16299 59.7846 7.29233 61.9663 9.24299 63.609C11.245 65.2516 14.094 66.073 17.79 66.073C21.024 66.073 23.5393 65.534 25.336 64.456C27.1327 63.378 28.031 61.7096 28.031 59.451C28.031 58.219 27.7487 57.1923 27.184 56.371C26.6707 55.4983 25.5927 54.754 23.95 54.138C22.3073 53.4706 19.8433 52.8546 16.558 52.29C12.708 51.5713 9.70499 50.7243 7.54899 49.749C5.39299 48.7223 3.87866 47.4646 3.00599 45.976C2.13333 44.436 1.69699 42.6136 1.69699 40.509C1.69699 36.8643 3.00599 33.9126 5.62399 31.654C8.24199 29.3953 11.8867 28.266 16.558 28.266C19.7407 28.266 22.4357 28.8563 24.643 30.037C26.9017 31.2176 28.6727 32.7833 29.956 34.734C31.2393 36.6333 32.0863 38.738 32.497 41.048L27.184 41.51C26.876 39.9186 26.2857 38.507 25.413 37.275C24.5403 35.9916 23.3597 34.9906 21.871 34.272C20.3823 33.502 18.5857 33.117 16.481 33.117C13.401 33.117 11.0397 33.7843 9.39699 35.119C7.80566 36.4023 7.00999 38.122 7.00999 40.278C7.00999 41.7666 7.34366 42.9986 8.01099 43.974C8.67833 44.898 9.78199 45.668 11.322 46.284C12.862 46.8486 14.9923 47.362 17.713 47.824C21.7683 48.4913 24.9253 49.3383 27.184 50.365C29.494 51.3403 31.111 52.5723 32.035 54.061C32.959 55.4983 33.421 57.2693 33.421 59.374C33.421 61.838 32.7537 63.9426 31.419 65.688C30.0843 67.382 28.2363 68.691 25.875 69.615C23.565 70.4876 20.87 70.924 17.79 70.924Z" fill="#E5C185"/>
<path d="M39.4107 70V29.19H44.0307L44.2617 40.201L43.5687 39.585C43.8767 37.3263 44.6211 35.35 45.8018 33.656C46.9824 31.962 48.4711 30.653 50.2677 29.729C52.0644 28.7536 54.0664 28.266 56.2738 28.266C59.6104 28.266 62.3824 29.344 64.5898 31.5C66.7971 33.6046 68.1317 36.5306 68.5938 40.278L67.5157 40.124C67.8751 37.66 68.6194 35.5553 69.7487 33.81C70.9294 32.0133 72.4437 30.653 74.2917 29.729C76.1397 28.7536 78.2188 28.266 80.5288 28.266C83.2494 28.266 85.5851 28.9076 87.5358 30.191C89.4864 31.423 90.9751 33.194 92.0018 35.504C93.0284 37.814 93.5417 40.586 93.5417 43.82V70H88.4597V45.36C88.4597 41.3046 87.6641 38.199 86.0727 36.043C84.5327 33.887 82.2998 32.809 79.3737 32.809C77.3204 32.809 75.4981 33.348 73.9068 34.426C72.3668 35.504 71.1347 37.0183 70.2107 38.969C69.3381 40.9196 68.9017 43.204 68.9017 45.822V70H63.8197V45.591C63.8197 41.6383 63.1011 38.5326 61.6637 36.274C60.2777 33.964 58.0704 32.809 55.0417 32.809C52.9884 32.809 51.1661 33.348 49.5747 34.426C47.9834 35.504 46.7258 36.9926 45.8018 38.892C44.9291 40.7913 44.4927 43.0243 44.4927 45.591V70H39.4107Z" fill="#E5C185"/>
<path d="M113.132 70.924C109.026 70.924 105.74 69.9486 103.276 67.998C100.812 65.996 99.5802 63.301 99.5802 59.913C99.5802 56.525 100.658 53.8556 102.814 51.905C104.97 49.9543 108.127 48.594 112.285 47.824L127.377 44.975C127.377 40.9196 126.505 37.9423 124.759 36.043C123.014 34.0923 120.37 33.117 116.828 33.117C113.697 33.117 111.207 33.8613 109.359 35.35C107.511 36.8386 106.279 38.9433 105.663 41.664L100.273 41.202C101.043 37.2493 102.84 34.118 105.663 31.808C108.538 29.4466 112.26 28.266 116.828 28.266C121.91 28.266 125.786 29.7033 128.455 32.578C131.125 35.4526 132.459 39.5593 132.459 44.898V61.915C132.459 63.301 132.665 64.2506 133.075 64.764C133.537 65.226 134.256 65.457 135.231 65.457H136.463V70C136.258 70.0513 135.95 70.077 135.539 70.077C135.18 70.1283 134.795 70.154 134.384 70.154C132.793 70.154 131.458 69.8716 130.38 69.307C129.354 68.7423 128.584 67.8183 128.07 66.535C127.608 65.2516 127.377 63.4806 127.377 61.222L127.993 61.299C127.531 63.0956 126.582 64.7383 125.144 66.227C123.758 67.6643 122.013 68.8193 119.908 69.692C117.804 70.5133 115.545 70.924 113.132 70.924ZM113.594 66.381C116.418 66.381 118.856 65.8163 120.909 64.687C122.963 63.5576 124.554 62.0433 125.683 60.144C126.813 58.1933 127.377 56.0116 127.377 53.599V49.518L113.363 52.136C110.437 52.7006 108.281 53.5733 106.895 54.754C105.561 55.9346 104.893 57.5003 104.893 59.451C104.893 61.6583 105.663 63.378 107.203 64.61C108.743 65.7906 110.874 66.381 113.594 66.381Z" fill="#E5C185"/>
<path d="M142.621 70V29.19H147.01L147.318 40.355L146.625 39.97C147.292 36.3253 148.499 33.6303 150.244 31.885C151.989 30.0883 154.402 29.19 157.482 29.19H161.024V34.118H157.328C155.275 34.118 153.529 34.58 152.092 35.504C150.654 36.3766 149.551 37.6343 148.781 39.277C148.062 40.9196 147.703 42.8703 147.703 45.129V70H142.621Z" fill="#E5C185"/>
<path d="M183.389 70C180.052 70 177.588 69.23 175.997 67.69C174.405 66.0986 173.61 63.686 173.61 60.452V19.642H178.692V60.298C178.692 62.1973 179.102 63.532 179.924 64.302C180.796 65.072 182.105 65.457 183.851 65.457H189.241V70H183.389ZM167.219 33.733V29.19H189.241V33.733H167.219Z" fill="#E5C185"/>
<path d="M214.487 70V28.11H240.27V32.004H216.67L218.499 30.116V49.704L216.67 47.462H239.208V51.297H216.67L218.499 49.35V70H214.487Z" fill="#008585"/>
<path d="M245.789 70V28.11H249.801V70H245.789Z" fill="#008585"/>
<path d="M267.197 70V32.004H253.745V28.11H284.661V32.004H271.209V70H267.197Z" fill="#008585"/>
</svg>
