<svg width="571" height="104" viewBox="0 0 571 104" fill="none" xmlns="http://www.w3.org/2000/svg">
<circle cx="250.5" cy="54.5" r="47.5" stroke="#008585" stroke-width="4"/>
<path d="M302.14 76L317.5 33.4H327.04L342.4 76H334.24L330.7 65.92H313.84L310.3 76H302.14ZM316.12 59.26H328.42L322.3 41.26L316.12 59.26ZM360.311 76.72C357.111 76.72 354.331 76.04 351.971 74.68C349.611 73.28 347.771 71.32 346.451 68.8C345.171 66.28 344.531 63.34 344.531 59.98C344.531 56.62 345.171 53.7 346.451 51.22C347.771 48.7 349.611 46.74 351.971 45.34C354.331 43.94 357.111 43.24 360.311 43.24C363.031 43.24 365.451 43.72 367.571 44.68C369.691 45.64 371.411 47.02 372.731 48.82C374.091 50.58 374.931 52.74 375.251 55.3L367.331 55.72C367.011 53.68 366.211 52.14 364.931 51.1C363.691 50.02 362.151 49.48 360.311 49.48C357.831 49.48 355.911 50.42 354.551 52.3C353.191 54.14 352.511 56.7 352.511 59.98C352.511 63.3 353.191 65.88 354.551 67.72C355.911 69.56 357.831 70.48 360.311 70.48C362.191 70.48 363.751 69.94 364.991 68.86C366.271 67.78 367.051 66.1 367.331 63.82L375.251 64.18C374.931 66.74 374.111 68.96 372.791 70.84C371.471 72.72 369.751 74.18 367.631 75.22C365.511 76.22 363.071 76.72 360.311 76.72ZM390.379 76.72C387.019 76.72 384.319 75.96 382.279 74.44C380.239 72.88 379.219 70.72 379.219 67.96C379.219 65.2 380.079 63.04 381.799 61.48C383.519 59.92 386.139 58.8 389.659 58.12L400.279 56.02C400.279 53.74 399.759 52.04 398.719 50.92C397.679 49.76 396.139 49.18 394.099 49.18C392.259 49.18 390.799 49.62 389.719 50.5C388.679 51.34 387.959 52.56 387.559 54.16L379.759 53.8C380.399 50.4 381.959 47.8 384.439 46C386.919 44.16 390.139 43.24 394.099 43.24C398.659 43.24 402.099 44.4 404.419 46.72C406.779 49 407.959 52.28 407.959 56.56V68.2C407.959 69.04 408.099 69.62 408.379 69.94C408.699 70.26 409.159 70.42 409.759 70.42H410.779V76C410.539 76.08 410.139 76.14 409.579 76.18C409.059 76.22 408.519 76.24 407.959 76.24C406.639 76.24 405.459 76.04 404.419 75.64C403.379 75.2 402.579 74.46 402.019 73.42C401.459 72.34 401.179 70.88 401.179 69.04L401.839 69.52C401.519 70.92 400.819 72.18 399.739 73.3C398.699 74.38 397.379 75.22 395.779 75.82C394.179 76.42 392.379 76.72 390.379 76.72ZM391.939 71.14C393.659 71.14 395.139 70.8 396.379 70.12C397.619 69.44 398.579 68.5 399.259 67.3C399.939 66.1 400.279 64.68 400.279 63.04V61.24L391.999 62.92C390.279 63.28 389.039 63.82 388.279 64.54C387.559 65.22 387.199 66.12 387.199 67.24C387.199 68.48 387.599 69.44 388.399 70.12C389.239 70.8 390.419 71.14 391.939 71.14ZM426.815 76.72C424.095 76.72 421.735 76.04 419.735 74.68C417.775 73.32 416.255 71.38 415.175 68.86C414.095 66.34 413.555 63.38 413.555 59.98C413.555 56.58 414.095 53.62 415.175 51.1C416.255 48.58 417.795 46.64 419.795 45.28C421.795 43.92 424.135 43.24 426.815 43.24C429.055 43.24 431.015 43.7 432.695 44.62C434.415 45.54 435.715 46.84 436.595 48.52V33.4H444.275V76H436.955L436.775 71.26C435.895 72.98 434.575 74.32 432.815 75.28C431.055 76.24 429.055 76.72 426.815 76.72ZM429.155 70.48C430.755 70.48 432.095 70.08 433.175 69.28C434.295 68.48 435.135 67.3 435.695 65.74C436.295 64.14 436.595 62.22 436.595 59.98C436.595 57.7 436.295 55.78 435.695 54.22C435.135 52.66 434.295 51.48 433.175 50.68C432.095 49.88 430.755 49.48 429.155 49.48C426.835 49.48 424.975 50.42 423.575 52.3C422.215 54.14 421.535 56.7 421.535 59.98C421.535 63.18 422.215 65.74 423.575 67.66C424.975 69.54 426.835 70.48 429.155 70.48ZM465.955 76.72C462.755 76.72 459.975 76.04 457.615 74.68C455.255 73.28 453.435 71.32 452.155 68.8C450.875 66.28 450.235 63.34 450.235 59.98C450.235 56.62 450.875 53.7 452.155 51.22C453.435 48.7 455.235 46.74 457.555 45.34C459.915 43.94 462.655 43.24 465.775 43.24C468.815 43.24 471.475 43.92 473.755 45.28C476.075 46.64 477.855 48.6 479.095 51.16C480.335 53.72 480.955 56.8 480.955 60.4V62.14H458.215C458.375 64.94 459.135 67.06 460.495 68.5C461.895 69.9 463.735 70.6 466.015 70.6C467.735 70.6 469.155 70.22 470.275 69.46C471.435 68.66 472.235 67.56 472.675 66.16L480.535 66.64C479.655 69.76 477.915 72.22 475.315 74.02C472.755 75.82 469.635 76.72 465.955 76.72ZM458.215 56.98H473.035C472.875 54.38 472.135 52.46 470.815 51.22C469.495 49.94 467.815 49.3 465.775 49.3C463.735 49.3 462.035 49.96 460.675 51.28C459.355 52.6 458.535 54.5 458.215 56.98ZM486.958 76V43.96H493.918L494.158 51.82L493.438 51.46C493.798 49.74 494.418 48.28 495.298 47.08C496.218 45.84 497.318 44.9 498.598 44.26C499.918 43.58 501.358 43.24 502.918 43.24C505.638 43.24 507.838 44.02 509.518 45.58C511.198 47.1 512.258 49.2 512.698 51.88H511.678C512.038 50 512.658 48.44 513.538 47.2C514.418 45.92 515.518 44.94 516.838 44.26C518.198 43.58 519.718 43.24 521.398 43.24C523.598 43.24 525.498 43.72 527.098 44.68C528.698 45.6 529.918 46.96 530.758 48.76C531.638 50.56 532.078 52.78 532.078 55.42V76H524.398V57.4C524.398 54.76 523.938 52.78 523.018 51.46C522.138 50.14 520.778 49.48 518.938 49.48C517.698 49.48 516.638 49.8 515.758 50.44C514.878 51.08 514.198 52.02 513.718 53.26C513.278 54.46 513.058 55.92 513.058 57.64V76H505.918V57.64C505.918 55 505.518 52.98 504.718 51.58C503.918 50.18 502.538 49.48 500.578 49.48C499.338 49.48 498.278 49.8 497.398 50.44C496.558 51.08 495.878 52.02 495.358 53.26C494.878 54.46 494.638 55.92 494.638 57.64V76H486.958ZM540.8 85V79.06H544.88C545.92 79.06 546.68 78.9 547.16 78.58C547.68 78.26 548.08 77.72 548.36 76.96L549.26 74.74H547.04L535.58 43.96H543.56L551.6 67.54L559.28 43.96H567.26L554.72 79.36C554 81.36 552.98 82.8 551.66 83.68C550.38 84.56 548.58 85 546.26 85H540.8Z" fill="#E5C185"/>
<path d="M20.79 75.924C17.248 75.924 14.2193 75.3593 11.704 74.23C9.24 73.0493 7.315 71.4323 5.929 69.379C4.543 67.3257 3.74733 65.0157 3.542 62.449L8.855 62.064C9.163 64.7847 10.2923 66.9663 12.243 68.609C14.245 70.2517 17.094 71.073 20.79 71.073C24.024 71.073 26.5393 70.534 28.336 69.456C30.1327 68.378 31.031 66.7097 31.031 64.451C31.031 63.219 30.7487 62.1923 30.184 61.371C29.6707 60.4983 28.5927 59.754 26.95 59.138C25.3073 58.4707 22.8433 57.8547 19.558 57.29C15.708 56.5713 12.705 55.7243 10.549 54.749C8.393 53.7223 6.87867 52.4647 6.006 50.976C5.13333 49.436 4.697 47.6137 4.697 45.509C4.697 41.8643 6.006 38.9127 8.624 36.654C11.242 34.3953 14.8867 33.266 19.558 33.266C22.7407 33.266 25.4357 33.8563 27.643 35.037C29.9017 36.2177 31.6727 37.7833 32.956 39.734C34.2393 41.6333 35.0863 43.738 35.497 46.048L30.184 46.51C29.876 44.9187 29.2857 43.507 28.413 42.275C27.5403 40.9917 26.3597 39.9907 24.871 39.272C23.3823 38.502 21.5857 38.117 19.481 38.117C16.401 38.117 14.0397 38.7843 12.397 40.119C10.8057 41.4023 10.01 43.122 10.01 45.278C10.01 46.7667 10.3437 47.9987 11.011 48.974C11.6783 49.898 12.782 50.668 14.322 51.284C15.862 51.8487 17.9923 52.362 20.713 52.824C24.7683 53.4913 27.9253 54.3383 30.184 55.365C32.494 56.3403 34.111 57.5723 35.035 59.061C35.959 60.4983 36.421 62.2693 36.421 64.374C36.421 66.838 35.7537 68.9427 34.419 70.688C33.0843 72.382 31.2363 73.691 28.875 74.615C26.565 75.4877 23.87 75.924 20.79 75.924ZM42.4108 75V34.19H47.0308L47.2618 45.201L46.5688 44.585C46.8768 42.3263 47.6211 40.35 48.8018 38.656C49.9824 36.962 51.4711 35.653 53.2678 34.729C55.0644 33.7537 57.0664 33.266 59.2738 33.266C62.6104 33.266 65.3824 34.344 67.5898 36.5C69.7971 38.6047 71.1318 41.5307 71.5938 45.278L70.5158 45.124C70.8751 42.66 71.6194 40.5553 72.7488 38.81C73.9294 37.0133 75.4438 35.653 77.2918 34.729C79.1398 33.7537 81.2188 33.266 83.5288 33.266C86.2494 33.266 88.5851 33.9077 90.5358 35.191C92.4864 36.423 93.9751 38.194 95.0018 40.504C96.0284 42.814 96.5418 45.586 96.5418 48.82V75H91.4598V50.36C91.4598 46.3047 90.6641 43.199 89.0728 41.043C87.5328 38.887 85.2998 37.809 82.3738 37.809C80.3204 37.809 78.4981 38.348 76.9068 39.426C75.3668 40.504 74.1348 42.0183 73.2108 43.969C72.3381 45.9197 71.9018 48.204 71.9018 50.822V75H66.8198V50.591C66.8198 46.6383 66.1011 43.5327 64.6638 41.274C63.2778 38.964 61.0704 37.809 58.0418 37.809C55.9884 37.809 54.1661 38.348 52.5748 39.426C50.9834 40.504 49.7258 41.9927 48.8018 43.892C47.9291 45.7913 47.4928 48.0243 47.4928 50.591V75H42.4108ZM116.132 75.924C112.026 75.924 108.74 74.9487 106.276 72.998C103.812 70.996 102.58 68.301 102.58 64.913C102.58 61.525 103.658 58.8557 105.814 56.905C107.97 54.9543 111.127 53.594 115.285 52.824L130.377 49.975C130.377 45.9197 129.505 42.9423 127.759 41.043C126.014 39.0923 123.37 38.117 119.828 38.117C116.697 38.117 114.207 38.8613 112.359 40.35C110.511 41.8387 109.279 43.9433 108.663 46.664L103.273 46.202C104.043 42.2493 105.84 39.118 108.663 36.808C111.538 34.4467 115.26 33.266 119.828 33.266C124.91 33.266 128.786 34.7033 131.455 37.578C134.125 40.4527 135.459 44.5593 135.459 49.898V66.915C135.459 68.301 135.665 69.2507 136.075 69.764C136.537 70.226 137.256 70.457 138.231 70.457H139.463V75C139.258 75.0513 138.95 75.077 138.539 75.077C138.18 75.1283 137.795 75.154 137.384 75.154C135.793 75.154 134.458 74.8717 133.38 74.307C132.354 73.7423 131.584 72.8183 131.07 71.535C130.608 70.2517 130.377 68.4807 130.377 66.222L130.993 66.299C130.531 68.0957 129.582 69.7383 128.144 71.227C126.758 72.6643 125.013 73.8193 122.908 74.692C120.804 75.5133 118.545 75.924 116.132 75.924ZM116.594 71.381C119.418 71.381 121.856 70.8163 123.909 69.687C125.963 68.5577 127.554 67.0433 128.683 65.144C129.813 63.1933 130.377 61.0117 130.377 58.599V54.518L116.363 57.136C113.437 57.7007 111.281 58.5733 109.895 59.754C108.561 60.9347 107.893 62.5003 107.893 64.451C107.893 66.6583 108.663 68.378 110.203 69.61C111.743 70.7907 113.874 71.381 116.594 71.381ZM145.621 75V34.19H150.01L150.318 45.355L149.625 44.97C150.292 41.3253 151.499 38.6303 153.244 36.885C154.989 35.0883 157.402 34.19 160.482 34.19H164.024V39.118H160.328C158.275 39.118 156.529 39.58 155.092 40.504C153.655 41.3767 152.551 42.6343 151.781 44.277C151.062 45.9197 150.703 47.8703 150.703 50.129V75H145.621ZM186.389 75C183.052 75 180.588 74.23 178.997 72.69C177.405 71.0987 176.61 68.686 176.61 65.452V24.642H181.692V65.298C181.692 67.1973 182.102 68.532 182.924 69.302C183.796 70.072 185.105 70.457 186.851 70.457H192.241V75H186.389ZM170.219 38.733V34.19H192.241V38.733H170.219Z" fill="#E5C185"/>
<path d="M217.487 75V33.11H243.27V37.004H219.67L221.499 35.116V54.704L219.67 52.462H242.208V56.297H219.67L221.499 54.35V75H217.487ZM248.789 75V33.11H252.801V75H248.789ZM270.197 75V37.004H256.745V33.11H287.661V37.004H274.209V75H270.197Z" fill="#008585"/>
</svg>
