<svg width="569" height="99" viewBox="0 0 569 99" fill="none" xmlns="http://www.w3.org/2000/svg">
<circle cx="247.5" cy="49.5" r="47.5" stroke="#008585" stroke-width="4"/>
<path d="M303.14 71L318.5 28.4H328.04L343.4 71H335.24L331.7 60.92H314.84L311.3 71H303.14ZM317.12 54.26H329.42L323.3 36.26L317.12 54.26Z" fill="#E5C185"/>
<path d="M361.311 71.72C358.111 71.72 355.331 71.04 352.971 69.68C350.611 68.28 348.771 66.32 347.451 63.8C346.171 61.28 345.531 58.34 345.531 54.98C345.531 51.62 346.171 48.7 347.451 46.22C348.771 43.7 350.611 41.74 352.971 40.34C355.331 38.94 358.111 38.24 361.311 38.24C364.031 38.24 366.451 38.72 368.571 39.68C370.691 40.64 372.411 42.02 373.731 43.82C375.091 45.58 375.931 47.74 376.251 50.3L368.331 50.72C368.011 48.68 367.211 47.14 365.931 46.1C364.691 45.02 363.151 44.48 361.311 44.48C358.831 44.48 356.911 45.42 355.551 47.3C354.191 49.14 353.511 51.7 353.511 54.98C353.511 58.3 354.191 60.88 355.551 62.72C356.911 64.56 358.831 65.48 361.311 65.48C363.191 65.48 364.751 64.94 365.991 63.86C367.271 62.78 368.051 61.1 368.331 58.82L376.251 59.18C375.931 61.74 375.111 63.96 373.791 65.84C372.471 67.72 370.751 69.18 368.631 70.22C366.511 71.22 364.071 71.72 361.311 71.72Z" fill="#E5C185"/>
<path d="M391.379 71.72C388.019 71.72 385.319 70.96 383.279 69.44C381.239 67.88 380.219 65.72 380.219 62.96C380.219 60.2 381.079 58.04 382.799 56.48C384.519 54.92 387.139 53.8 390.659 53.12L401.279 51.02C401.279 48.74 400.759 47.04 399.719 45.92C398.679 44.76 397.139 44.18 395.099 44.18C393.259 44.18 391.799 44.62 390.719 45.5C389.679 46.34 388.959 47.56 388.559 49.16L380.759 48.8C381.399 45.4 382.959 42.8 385.439 41C387.919 39.16 391.139 38.24 395.099 38.24C399.659 38.24 403.099 39.4 405.419 41.72C407.779 44 408.959 47.28 408.959 51.56V63.2C408.959 64.04 409.099 64.62 409.379 64.94C409.699 65.26 410.159 65.42 410.759 65.42H411.779V71C411.539 71.08 411.139 71.14 410.579 71.18C410.059 71.22 409.519 71.24 408.959 71.24C407.639 71.24 406.459 71.04 405.419 70.64C404.379 70.2 403.579 69.46 403.019 68.42C402.459 67.34 402.179 65.88 402.179 64.04L402.839 64.52C402.519 65.92 401.819 67.18 400.739 68.3C399.699 69.38 398.379 70.22 396.779 70.82C395.179 71.42 393.379 71.72 391.379 71.72ZM392.939 66.14C394.659 66.14 396.139 65.8 397.379 65.12C398.619 64.44 399.579 63.5 400.259 62.3C400.939 61.1 401.279 59.68 401.279 58.04V56.24L392.999 57.92C391.279 58.28 390.039 58.82 389.279 59.54C388.559 60.22 388.199 61.12 388.199 62.24C388.199 63.48 388.599 64.44 389.399 65.12C390.239 65.8 391.419 66.14 392.939 66.14Z" fill="#E5C185"/>
<path d="M427.815 71.72C425.095 71.72 422.735 71.04 420.735 69.68C418.775 68.32 417.255 66.38 416.175 63.86C415.095 61.34 414.555 58.38 414.555 54.98C414.555 51.58 415.095 48.62 416.175 46.1C417.255 43.58 418.795 41.64 420.795 40.28C422.795 38.92 425.135 38.24 427.815 38.24C430.055 38.24 432.015 38.7 433.695 39.62C435.415 40.54 436.715 41.84 437.595 43.52V28.4H445.275V71H437.955L437.775 66.26C436.895 67.98 435.575 69.32 433.815 70.28C432.055 71.24 430.055 71.72 427.815 71.72ZM430.155 65.48C431.755 65.48 433.095 65.08 434.175 64.28C435.295 63.48 436.135 62.3 436.695 60.74C437.295 59.14 437.595 57.22 437.595 54.98C437.595 52.7 437.295 50.78 436.695 49.22C436.135 47.66 435.295 46.48 434.175 45.68C433.095 44.88 431.755 44.48 430.155 44.48C427.835 44.48 425.975 45.42 424.575 47.3C423.215 49.14 422.535 51.7 422.535 54.98C422.535 58.18 423.215 60.74 424.575 62.66C425.975 64.54 427.835 65.48 430.155 65.48Z" fill="#E5C185"/>
<path d="M466.955 71.72C463.755 71.72 460.975 71.04 458.615 69.68C456.255 68.28 454.435 66.32 453.155 63.8C451.875 61.28 451.235 58.34 451.235 54.98C451.235 51.62 451.875 48.7 453.155 46.22C454.435 43.7 456.235 41.74 458.555 40.34C460.915 38.94 463.655 38.24 466.775 38.24C469.815 38.24 472.475 38.92 474.755 40.28C477.075 41.64 478.855 43.6 480.095 46.16C481.335 48.72 481.955 51.8 481.955 55.4V57.14H459.215C459.375 59.94 460.135 62.06 461.495 63.5C462.895 64.9 464.735 65.6 467.015 65.6C468.735 65.6 470.155 65.22 471.275 64.46C472.435 63.66 473.235 62.56 473.675 61.16L481.535 61.64C480.655 64.76 478.915 67.22 476.315 69.02C473.755 70.82 470.635 71.72 466.955 71.72ZM459.215 51.98H474.035C473.875 49.38 473.135 47.46 471.815 46.22C470.495 44.94 468.815 44.3 466.775 44.3C464.735 44.3 463.035 44.96 461.675 46.28C460.355 47.6 459.535 49.5 459.215 51.98Z" fill="#E5C185"/>
<path d="M487.958 71V38.96H494.918L495.158 46.82L494.438 46.46C494.798 44.74 495.418 43.28 496.298 42.08C497.218 40.84 498.318 39.9 499.598 39.26C500.918 38.58 502.358 38.24 503.918 38.24C506.638 38.24 508.838 39.02 510.518 40.58C512.198 42.1 513.258 44.2 513.698 46.88H512.678C513.038 45 513.658 43.44 514.538 42.2C515.418 40.92 516.518 39.94 517.838 39.26C519.198 38.58 520.718 38.24 522.398 38.24C524.598 38.24 526.498 38.72 528.098 39.68C529.698 40.6 530.918 41.96 531.758 43.76C532.638 45.56 533.078 47.78 533.078 50.42V71H525.398V52.4C525.398 49.76 524.938 47.78 524.018 46.46C523.138 45.14 521.778 44.48 519.938 44.48C518.698 44.48 517.638 44.8 516.758 45.44C515.878 46.08 515.198 47.02 514.718 48.26C514.278 49.46 514.058 50.92 514.058 52.64V71H506.918V52.64C506.918 50 506.518 47.98 505.718 46.58C504.918 45.18 503.538 44.48 501.578 44.48C500.338 44.48 499.278 44.8 498.398 45.44C497.558 46.08 496.878 47.02 496.358 48.26C495.878 49.46 495.638 50.92 495.638 52.64V71H487.958Z" fill="#E5C185"/>
<path d="M541.8 80V74.06H545.88C546.92 74.06 547.68 73.9 548.16 73.58C548.68 73.26 549.08 72.72 549.36 71.96L550.26 69.74H548.04L536.58 38.96H544.56L552.6 62.54L560.28 38.96H568.26L555.72 74.36C555 76.36 553.98 77.8 552.66 78.68C551.38 79.56 549.58 80 547.26 80H541.8Z" fill="#E5C185"/>
<path d="M17.79 70.924C14.248 70.924 11.2193 70.3593 8.704 69.23C6.24 68.0493 4.315 66.4323 2.929 64.379C1.543 62.3256 0.747333 60.0156 0.542 57.449L5.855 57.064C6.163 59.7846 7.29233 61.9663 9.243 63.609C11.245 65.2516 14.094 66.073 17.79 66.073C21.024 66.073 23.5393 65.534 25.336 64.456C27.1327 63.378 28.031 61.7096 28.031 59.451C28.031 58.219 27.7487 57.1923 27.184 56.371C26.6707 55.4983 25.5927 54.754 23.95 54.138C22.3073 53.4706 19.8433 52.8546 16.558 52.29C12.708 51.5713 9.705 50.7243 7.549 49.749C5.393 48.7223 3.87867 47.4646 3.006 45.976C2.13333 44.436 1.697 42.6136 1.697 40.509C1.697 36.8643 3.006 33.9126 5.624 31.654C8.242 29.3953 11.8867 28.266 16.558 28.266C19.7407 28.266 22.4357 28.8563 24.643 30.037C26.9017 31.2176 28.6727 32.7833 29.956 34.734C31.2393 36.6333 32.0863 38.738 32.497 41.048L27.184 41.51C26.876 39.9186 26.2857 38.507 25.413 37.275C24.5403 35.9916 23.3597 34.9906 21.871 34.272C20.3823 33.502 18.5857 33.117 16.481 33.117C13.401 33.117 11.0397 33.7843 9.397 35.119C7.80567 36.4023 7.01 38.122 7.01 40.278C7.01 41.7666 7.34367 42.9986 8.011 43.974C8.67833 44.898 9.782 45.668 11.322 46.284C12.862 46.8486 14.9923 47.362 17.713 47.824C21.7683 48.4913 24.9253 49.3383 27.184 50.365C29.494 51.3403 31.111 52.5723 32.035 54.061C32.959 55.4983 33.421 57.2693 33.421 59.374C33.421 61.838 32.7537 63.9426 31.419 65.688C30.0843 67.382 28.2363 68.691 25.875 69.615C23.565 70.4876 20.87 70.924 17.79 70.924Z" fill="#E5C185"/>
<path d="M39.4108 70V29.19H44.0308L44.2618 40.201L43.5688 39.585C43.8768 37.3263 44.6211 35.35 45.8018 33.656C46.9824 31.962 48.4711 30.653 50.2678 29.729C52.0644 28.7536 54.0664 28.266 56.2738 28.266C59.6104 28.266 62.3824 29.344 64.5898 31.5C66.7971 33.6046 68.1318 36.5306 68.5938 40.278L67.5158 40.124C67.8751 37.66 68.6194 35.5553 69.7488 33.81C70.9294 32.0133 72.4438 30.653 74.2918 29.729C76.1398 28.7536 78.2188 28.266 80.5288 28.266C83.2494 28.266 85.5851 28.9076 87.5358 30.191C89.4864 31.423 90.9751 33.194 92.0018 35.504C93.0284 37.814 93.5418 40.586 93.5418 43.82V70H88.4598V45.36C88.4598 41.3046 87.6641 38.199 86.0728 36.043C84.5328 33.887 82.2998 32.809 79.3738 32.809C77.3204 32.809 75.4981 33.348 73.9068 34.426C72.3668 35.504 71.1348 37.0183 70.2108 38.969C69.3381 40.9196 68.9018 43.204 68.9018 45.822V70H63.8198V45.591C63.8198 41.6383 63.1011 38.5326 61.6638 36.274C60.2778 33.964 58.0704 32.809 55.0418 32.809C52.9884 32.809 51.1661 33.348 49.5748 34.426C47.9834 35.504 46.7258 36.9926 45.8018 38.892C44.9291 40.7913 44.4928 43.0243 44.4928 45.591V70H39.4108Z" fill="#E5C185"/>
<path d="M113.132 70.924C109.026 70.924 105.74 69.9486 103.276 67.998C100.812 65.996 99.5802 63.301 99.5802 59.913C99.5802 56.525 100.658 53.8556 102.814 51.905C104.97 49.9543 108.127 48.594 112.285 47.824L127.377 44.975C127.377 40.9196 126.505 37.9423 124.759 36.043C123.014 34.0923 120.37 33.117 116.828 33.117C113.697 33.117 111.207 33.8613 109.359 35.35C107.511 36.8386 106.279 38.9433 105.663 41.664L100.273 41.202C101.043 37.2493 102.84 34.118 105.663 31.808C108.538 29.4466 112.26 28.266 116.828 28.266C121.91 28.266 125.786 29.7033 128.455 32.578C131.125 35.4526 132.459 39.5593 132.459 44.898V61.915C132.459 63.301 132.665 64.2506 133.075 64.764C133.537 65.226 134.256 65.457 135.231 65.457H136.463V70C136.258 70.0513 135.95 70.077 135.539 70.077C135.18 70.1283 134.795 70.154 134.384 70.154C132.793 70.154 131.458 69.8716 130.38 69.307C129.354 68.7423 128.584 67.8183 128.07 66.535C127.608 65.2516 127.377 63.4806 127.377 61.222L127.993 61.299C127.531 63.0956 126.582 64.7383 125.144 66.227C123.758 67.6643 122.013 68.8193 119.908 69.692C117.804 70.5133 115.545 70.924 113.132 70.924ZM113.594 66.381C116.418 66.381 118.856 65.8163 120.909 64.687C122.963 63.5576 124.554 62.0433 125.683 60.144C126.813 58.1933 127.377 56.0116 127.377 53.599V49.518L113.363 52.136C110.437 52.7006 108.281 53.5733 106.895 54.754C105.561 55.9346 104.893 57.5003 104.893 59.451C104.893 61.6583 105.663 63.378 107.203 64.61C108.743 65.7906 110.874 66.381 113.594 66.381Z" fill="#E5C185"/>
<path d="M142.621 70V29.19H147.01L147.318 40.355L146.625 39.97C147.292 36.3253 148.499 33.6303 150.244 31.885C151.989 30.0883 154.402 29.19 157.482 29.19H161.024V34.118H157.328C155.275 34.118 153.529 34.58 152.092 35.504C150.655 36.3766 149.551 37.6343 148.781 39.277C148.062 40.9196 147.703 42.8703 147.703 45.129V70H142.621Z" fill="#E5C185"/>
<path d="M183.389 70C180.052 70 177.588 69.23 175.997 67.69C174.405 66.0986 173.61 63.686 173.61 60.452V19.642H178.692V60.298C178.692 62.1973 179.102 63.532 179.924 64.302C180.796 65.072 182.105 65.457 183.851 65.457H189.241V70H183.389ZM167.219 33.733V29.19H189.241V33.733H167.219Z" fill="#E5C185"/>
<path d="M214.487 70V28.11H240.27V32.004H216.67L218.499 30.116V49.704L216.67 47.462H239.208V51.297H216.67L218.499 49.35V70H214.487Z" fill="#008585"/>
<path d="M245.789 70V28.11H249.801V70H245.789Z" fill="#008585"/>
<path d="M267.197 70V32.004H253.745V28.11H284.661V32.004H271.209V70H267.197Z" fill="#008585"/>
</svg>
