<svg width="364" height="410" viewBox="0 0 364 410" fill="none" xmlns="http://www.w3.org/2000/svg">
<path d="M299.004 84.512C380.173 136.702 332.222 171.705 332.222 171.705C332.222 171.705 140.12 64.1418 130.807 346.105C58.5701 299.659 37.6626 203.447 84.1088 131.21C130.555 58.9733 226.767 38.0658 299.004 84.512Z" fill="#008585"/>
<path d="M348.041 189.712C344.31 196.364 334.35 179.612 306.888 164.209C279.427 148.806 244.863 140.585 248.594 133.933C252.325 127.281 287.747 131.492 315.209 146.895C342.67 162.298 351.772 183.06 348.041 189.712Z" fill="#008585"/>
<path d="M314.305 143.137C317.131 138.74 315.865 132.889 311.477 130.068C307.089 127.246 301.24 128.523 298.413 132.919C295.587 137.315 296.852 143.167 301.241 145.988C305.629 148.81 311.478 147.533 314.305 143.137Z" fill="white"/>
<path d="M311.908 138.381C313.361 136.12 312.71 133.111 310.453 131.66C308.197 130.209 305.189 130.865 303.735 133.126C302.281 135.387 302.932 138.396 305.189 139.847C307.446 141.298 310.454 140.642 311.908 138.381Z" fill="#008585"/>
<path d="M189.157 335.301C213.166 365.839 155.129 326.634 134.383 342.945C113.637 359.255 148.237 437.877 114.029 394.368C97.7185 373.622 101.314 343.581 122.06 327.271C142.806 310.96 172.847 314.555 189.157 335.301Z" fill="#008585"/>
<path d="M147.461 166.686C147.461 166.686 177.489 198.133 175.452 255.128C226.483 212.034 203.289 164.661 203.289 164.661C181.344 173.689 169.14 173.045 147.461 166.686Z" fill="#008585"/>
<path d="M131.207 137.203C131.207 137.203 101.816 106.833 38.8291 107.157C94.9692 58.3808 143.04 82.5168 143.04 82.5168C129.341 103.771 127.949 115.758 131.207 137.203Z" fill="#008585"/>
</svg>
